<?xml version="1.0" encoding="utf-8"?>
<!-- Generator: Adobe Illustrator 23.1.1, SVG Export Plug-In . SVG Version: 6.00 Build 0)  -->
<svg version="1.1" id="cut_paths" xmlns="http://www.w3.org/2000/svg" xmlns:xlink="http://www.w3.org/1999/xlink" x="0px" y="0px"
	 viewBox="0 0 504.9 431.8" style="enable-background:new 0 0 504.9 431.8;" xml:space="preserve">
<style type="text/css">
	.st0{fill:#2E2EFF;}
</style>
<path id="bottom" class="st0" d="M466.9,323.2c-2.6,2.5-5.7,4.3-9.2,5.3c5.7,6.9,9.4,17.1,9.4,28.4c0,20.7-12.1,37.5-27,37.5h-378
	c-14.9,0-27-16.8-27-37.5c0-11.4,3.7-21.6,9.5-28.5c-3.5-1.1-6.6-2.9-9.2-5.4c-6.9,8.6-11.1,20.5-11.1,33.9
	c0,26.6,16.6,47.5,37.8,47.5H440c21.2,0,37.8-20.9,37.8-47.5C477.9,343.7,473.7,331.8,466.9,323.2z"/>
<g id="cheese">
	<path class="st0" d="M450.8,294.5L450.8,294.5c6.9,0,12.5,5.6,12.5,12.5s-5.6,12.5-12.5,12.5h-97.9l-22.1,22.1
		c-2.7,2.7-7.2,2.7-9.9,0l0,0l-22.1-22.1h-248l0,0c-6.9,0-12.5-5.6-12.5-12.5s5.6-12.5,12.5-12.5l0,0l0,0H450.8 M450.8,284.5h-400
		c-0.4,0-0.8,0-1.2,0.1c-12.4,0.9-21.7,11.7-20.8,24.1c0.8,11.1,9.7,20,20.8,20.8c0.4,0,0.8,0.1,1.2,0.1h243.8l19.2,19.2
		c6.6,6.6,17.4,6.6,24,0l19.2-19.2h94.4c12.4,0,22.5-10.1,22.5-22.5s-10.1-22.5-22.5-22.5h-0.6V284.5z"/>
</g>
<g id="beef">
	<path class="st0" d="M52.6,225.7c-3.6-1.8-6.6-4.3-8.6-7.2c-2.1,7.8-3.2,16.6-3.2,26c0,15.7,3.2,29.6,8.5,40.1c0.1,0,0.2,0,0.3,0
		c0.4,0,0.8-0.1,1.2-0.1h10c-6.1-9.1-10-23.6-10-40C50.8,237.9,51.4,231.5,52.6,225.7z"/>
	<path class="st0" d="M457,216.7c-1.1,1.6-2.5,3.1-4.1,4.4c-1.4,1.1-2.8,2-4.4,2.8c1.4,6.3,2.2,13.3,2.2,20.6c0,16.4-3.9,30.9-10,40
		h10h0.6c0.3,0,0.6,0,1,0c5.3-10.5,8.5-24.4,8.5-40C460.8,234.3,459.4,224.9,457,216.7z"/>
</g>
<g id="dressing_2_">
	<g id="dressing_1_">
		<g>
			<path class="st0" d="M457.9,205.1h-2.2h-5.1c0,0.1,0,0.2,0,0.3c0,13.5-25.6,13.9-25.6,13.9h-4.6c-4.7,4.7-10.6,6.2-16.3,6.2
				c-10.9,0-21.3-5.6-22.4-6.2h-25.2c-6.8,6.8-12.3,9.1-16.7,9.1c-8.3,0-12.2-8.2-12.6-9.1H276c-3,3-7,4.6-11.2,4.6
				c-6.8,0-13-3.8-14.2-4.6h-72.5c-6.8,14.5-14.4,19.3-21.6,19.3c-13.7,0-25.8-17.5-26.9-19.3h-27c-6.8,6.7-11.5,8.9-14.7,8.9
				c-5.7,0-6.9-7-7.1-8.9h-5.6c0,0-1.4,0.1-3.5,0.1c-6.8,0-21.1-1.3-21.1-12.7c0-0.6,0.1-1.2,0.1-1.7h-4.4c-2,0-3.9-0.2-5.6-0.5
				c-0.1,0.7-0.1,1.4-0.1,2.2c0,9,5.2,16.3,14.3,19.9c5.4,1.9,11.1,2.9,16.8,2.8c0.7,0,1.4,0,1.9,0c3,5.5,8.2,8.8,14.3,8.8
				c5.8,0,11.8-2.9,18.7-8.9h18c5.7,7.2,17.5,19.3,32,19.3c6.4,0,12.5-2.3,17.3-6.5c4.2-3.6,7.7-8,10.4-12.8h63.8
				c5.2,2.8,11,4.4,16.9,4.6c5.3,0,10.4-1.6,14.8-4.6h42.3c4,4.9,10.1,9.1,18.1,9.1c6.8,0,13.7-3,20.6-9.1h18.8
				c4.6,2.2,14.3,6.2,24.8,6.2c7.2,0.1,14.2-2.1,20-6.2h1.1c5.2-0.2,10.3-0.9,15.3-2.3c4.5-1.2,8.7-3.2,12.4-6
				c4.8-3.8,7.7-9.5,7.7-15.6c0-0.1,0-0.3,0-0.4C459.7,205,458.8,205.1,457.9,205.1z"/>
		</g>
	</g>
</g>
<g id="seeds">
	<path class="st0" d="M96.9,142.2c-0.8,0-1.7-0.3-2.3-0.9c-1.7-1.7-0.9-4.8,1.8-7.6c1.4-1.5,3.2-2.5,5.3-2.7c0.9,0,1.7,0.3,2.3,0.9
		c0.5,0.5,1.4,1.8,0.5,4.1c-0.5,1.3-1.3,2.5-2.3,3.4C100.8,141,98.9,142,96.9,142.2z"/>
	<path class="st0" d="M101.7,133.1c0.3,0,0.6,0.1,0.9,0.3c0.8,0.8,0,2.9-1.8,4.7c-1,1.1-2.4,1.9-3.9,2.1c-0.3,0-0.6-0.1-0.9-0.3
		c-0.8-0.8,0-2.9,1.8-4.7C98.8,134,100.2,133.3,101.7,133.1 M101.7,129.1c-2.6,0.2-5,1.4-6.7,3.3c-1.2,1.2-2.2,2.6-2.8,4.1
		c-1,2.1-0.6,4.6,1,6.2c1,1,2.3,1.5,3.7,1.5c2.6-0.2,5-1.4,6.7-3.3c3.6-3.6,4.3-7.9,1.8-10.4C104.4,129.6,103.1,129,101.7,129.1
		L101.7,129.1z"/>
	<path class="st0" d="M157.2,104.5c-2.8,0-5.1-2.8-5.1-6.4s2.2-6.4,5.1-6.4s5.1,2.8,5.1,6.4S160.1,104.5,157.2,104.5z"/>
	<path class="st0" d="M157.2,93.6c1.7,0,3.1,2,3.1,4.4s-1.4,4.4-3.1,4.4s-3.1-2-3.1-4.4S155.6,93.6,157.2,93.6 M157.2,89.6
		c-4,0-7.1,3.7-7.1,8.4s3.1,8.4,7.1,8.4s7.1-3.7,7.1-8.4S161.2,89.6,157.2,89.6z"/>
	<path class="st0" d="M227.3,147.5h-0.4c-1.5-0.3-2.7-1.5-3.1-3c-0.4-1.4-0.5-2.9-0.3-4.3c0.4-3.1,2-6.3,4.6-6.3h0.4
		c2.5,0.3,3.9,3.3,3.4,7.3C231.5,144.3,229.9,147.5,227.3,147.5z"/>
	<path class="st0" d="M228.2,135.8h0.1c1.2,0.1,1.9,2.4,1.6,5.1s-1.5,4.6-2.7,4.6h-0.1c-1.2-0.1-2-2.4-1.6-5.1
		S227,135.8,228.2,135.8 M228.2,131.8L228.2,131.8c-3.4,0-6,3.3-6.6,8.1c-0.2,1.7-0.1,3.5,0.4,5.2c1.1,3.5,3.7,4.2,4.7,4.3
		c0.2,0,0.4,0,0.6,0c3.4,0,6-3.2,6.6-8.1c0.2-1.7,0.1-3.5-0.4-5.2c-1.1-3.6-3.7-4.2-4.7-4.4C228.6,131.8,228.4,131.8,228.2,131.8
		L228.2,131.8z"/>
	<path class="st0" d="M309.6,103.1c-2.8,0-5.2-3.1-5.6-7.3c-0.2-1.8,0.1-3.5,0.7-5.2s2-2.8,3.7-3.1h0.3c2.8,0,5.2,3.1,5.5,7.3
		c0.2,1.8,0,3.5-0.7,5.2c-0.6,1.6-2,2.8-3.7,3.1H309.6z"/>
	<path class="st0" d="M308.9,89.5c1.7,0,3.3,2.4,3.6,5.5s-0.9,5.9-2.6,6.1h-0.2c-1.7,0-3.3-2.4-3.6-5.5s0.9-5.9,2.6-6.1H308.9
		 M308.9,85.5c-0.2,0-0.4,0-0.5,0c-2.5,0.3-4.5,2-5.4,4.3c-0.8,1.9-1.1,4.1-0.9,6.1c0.5,5.3,3.7,9.1,7.5,9.1c0.2,0,0.4,0,0.5,0
		c2.5-0.3,4.5-2,5.4-4.3c0.8-1.9,1.1-4.1,0.9-6.1C315.9,89.3,312.8,85.5,308.9,85.5z"/>
	<path class="st0" d="M378.5,149.1c-2.1,0-3.9-2.1-4.6-5.4c-0.3-1.3-0.3-2.6,0-3.9c0.3-1.4,1.3-2.6,2.7-2.9c0.2,0,0.4-0.1,0.6-0.1
		c2.1,0,3.9,2.1,4.6,5.4c0.3,1.3,0.3,2.6,0,3.9c-0.2,1.4-1.3,2.6-2.7,2.9C378.9,149.1,378.7,149.1,378.5,149.1z"/>
	<path class="st0" d="M377.3,138.8c1,0,2.2,1.6,2.6,3.8s-0.1,4.3-1.2,4.5h-0.2c-1,0-2.2-1.6-2.6-3.8s0.1-4.3,1.2-4.5H377.3
		 M377.3,134.8L377.3,134.8c-0.3,0-0.7,0-1,0.1c-3.4,0.7-5.2,4.6-4.3,9.2c0.8,4.2,3.4,7,6.5,7c0.3,0,0.7,0,1-0.1
		c2.2-0.5,3.8-2.2,4.3-4.4c0.4-1.6,0.4-3.2,0.1-4.8C383,137.6,380.4,134.8,377.3,134.8L377.3,134.8z"/>
	<path class="st0" d="M412.1,127c-0.3,0-0.6,0-0.9-0.1c-2.3-0.7-3-4-1.8-7.9c0.8-2.6,2.6-5.6,5.1-5.6c0.3,0,0.6,0,0.9,0.1
		c0.6,0.2,2.1,0.9,2.4,3.6c0.1,1.5-0.1,2.9-0.6,4.3C416.4,124,414.6,127,412.1,127z"/>
	<path class="st0" d="M414.5,115.3c0.1,0,0.2,0,0.3,0c1.1,0.4,1.3,2.8,0.5,5.4c-0.8,2.4-2.1,4.2-3.2,4.2c-0.1,0-0.2,0-0.3,0
		c-1.1-0.3-1.3-2.8-0.5-5.4C412.1,117.1,413.5,115.3,414.5,115.3 M414.5,111.3L414.5,111.3c-3.6,0-6,3.6-7,7
		c-0.5,1.6-0.8,3.4-0.6,5.1c0.3,3.8,2.7,5,3.8,5.3c0.5,0.1,1,0.2,1.5,0.2c3.6,0,6-3.6,7-7c0.5-1.6,0.8-3.4,0.6-5.1
		c-0.3-3.8-2.7-5-3.8-5.3C415.5,111.4,415,111.3,414.5,111.3L414.5,111.3z"/>
</g>
<path id="top" class="st0" d="M246.6,34.1h3.2l2.5,0.1c41.6,1.4,84.4,9.3,123.1,25c26.1,10.6,51.5,25.6,69.8,47.9
	c15.1,18.4,29.5,49.2,26,75.1c0,12-5,12.9-13.3,12.9c-1.3,0-2.8,0-4.3,0h-14.9H46.2l0,0c-16.3,0-17-14.1-15.4-28.3
	c7-63.3,60.7-99.1,115.4-116.2C178.1,40.5,213,34,246.6,34.1 M246.6,24L246.6,24c-32.1,0-67.9,5.9-103.4,16.9
	c-31.7,9.9-59.1,24.7-79.3,42.9c-25.1,22.5-39.5,50-43.1,81.8c-1.2,10.9-1.4,23.3,6.1,31.7c4.6,5.1,11.1,7.7,19.2,7.7h392.6h17h2.2
	c5.3,0,11-0.3,15.8-3.9c6.5-4.9,7.4-12.6,7.5-18.3c1.6-13.4-0.7-28.8-6.7-44.6c-5.2-13.6-12.5-26.2-21.6-37.5
	c-17.1-20.8-41.9-37.9-73.8-50.8c-37.9-15.4-81.6-24.3-126.6-25.7h-0.1c-0.9,0-1.7,0-2.6-0.1C248.8,24.1,247.7,24.1,246.6,24
	L246.6,24z"/>
</svg>
