<?xml version="1.0" encoding="utf-8"?>
<!-- Generator: Adobe Illustrator 24.0.1, SVG Export Plug-In . SVG Version: 6.00 Build 0)  -->
<svg version="1.1" id="Lager_1" xmlns="http://www.w3.org/2000/svg" xmlns:xlink="http://www.w3.org/1999/xlink" x="0px" y="0px"
	 viewBox="0 0 48 48" style="enable-background:new 0 0 48 48;" xml:space="preserve">
<style type="text/css">
	.st0{fill:#2E2EFF;}
</style>
<path class="st0" d="M24,4L4,17.2l0,13.6L24,44l20-13.2l0-13.6L24,4z M24,28l-6-4l6-4l6,4L24,28z M26,16.5v-6.4l12.5,8.2l-4.9,3.2
	L26,16.5z M22,16.5l-7.6,5.1l-4.9-3.2L22,10.1V16.5z M10.8,24L8,25.9l0-3.7L10.8,24z M14.4,26.4l7.6,5.1v6.4L9.5,29.6L14.4,26.4z
	 M26,31.5l7.6-5.1l4.9,3.2L26,37.9L26,31.5L26,31.5z M37.2,24l2.8-1.9l0,3.7L37.2,24z"/>
</svg>
