<?xml version="1.0" encoding="utf-8"?>
<!-- Generator: Adobe Illustrator 24.0.1, SVG Export Plug-In . SVG Version: 6.00 Build 0)  -->
<svg version="1.1" id="Lager_1" xmlns="http://www.w3.org/2000/svg" xmlns:xlink="http://www.w3.org/1999/xlink" x="0px" y="0px"
	 viewBox="0 0 35.5 34.7" style="enable-background:new 0 0 35.5 34.7;" xml:space="preserve">
<style type="text/css">
	.st0{fill:#2E2EFF;}
</style>
<path class="st0" d="M33.2,8.9c-1.6-2.7-3.8-4.9-6.5-6.5C24,0.8,20.9,0,17.7,0C14.6,0,11.6,0.8,9,2.4C6.3,4,4.1,6.2,2.5,8.9
	C0.9,11.6,0,14.7,0,17.8c0,3.7,1.2,7.4,3.4,10.4c2.2,3,5.3,5.3,8.8,6.4c0.3,0.1,0.6,0.1,0.9-0.1c0.2-0.2,0.3-0.4,0.3-0.7v-1.3v-2
	h-0.6c-0.4,0.1-0.9,0.2-1.3,0.2c-0.5,0-1.1-0.1-1.6-0.2c-0.5-0.1-1.1-0.4-1.5-0.7c-0.5-0.4-0.8-0.8-1-1.4l-0.3-0.6
	c-0.2-0.4-0.4-0.8-0.7-1.1c-0.2-0.4-0.6-0.8-1-1H5.2c-0.1-0.1-0.2-0.2-0.3-0.3c-0.1-0.1-0.1-0.2-0.2-0.3l0.1-0.3
	c0.2-0.1,0.5-0.1,0.7-0.1H6c0.4,0.1,0.8,0.3,1.1,0.6c0.5,0.3,0.8,0.7,1.1,1.2c0.3,0.6,0.7,1.1,1.3,1.5c0.4,0.3,1,0.5,1.5,0.5
	c0.5,0,0.9,0,1.4-0.1c0.3-0.1,0.7-0.2,1-0.4c0.1-0.9,0.5-1.8,1.1-2.4c-0.8-0.1-1.5-0.2-2.3-0.4c-0.8-0.2-1.5-0.5-2.2-0.9
	c-0.8-0.4-1.4-0.9-2-1.5c-0.5-0.8-0.8-1.6-1-2.5c-0.3-1.1-0.5-2.2-0.5-3.4c-0.1-1.8,0.6-3.6,1.8-4.9c-0.6-1.5-0.5-3.2,0.1-4.7
	c0.7-0.1,1.4,0,2,0.3c0.7,0.2,1.4,0.5,2,0.9l1,0.6c2.9-0.8,5.9-0.8,8.8,0l0.9-0.6c0.7-0.4,1.4-0.7,2.1-1c0.6-0.3,1.3-0.3,1.9-0.2
	c0.7,1.5,0.8,3.2,0.2,4.7c1.2,1.3,1.8,3,1.8,4.8c0,1.2-0.2,2.3-0.5,3.4c-0.2,0.9-0.6,1.8-1.2,2.5c-0.5,0.6-1.2,1.1-1.9,1.5
	c-0.7,0.4-1.4,0.7-2.1,0.9c-0.8,0.2-1.6,0.3-2.4,0.4c0.9,0.9,1.3,2.1,1.2,3.3v4.9c0,0.3,0.1,0.5,0.3,0.7c0.3,0.2,0.6,0.2,0.9,0.1
	c3.5-1.1,6.6-3.4,8.8-6.4c2.2-3,3.4-6.7,3.3-10.4c0.1-3.2-0.7-6.3-2.3-9V8.9z"/>
</svg>
