<?xml version="1.0" encoding="utf-8"?>
<!-- Generator: Adobe Illustrator 24.0.1, SVG Export Plug-In . SVG Version: 6.00 Build 0)  -->
<svg version="1.1" id="Lager_1" xmlns="http://www.w3.org/2000/svg" xmlns:xlink="http://www.w3.org/1999/xlink" x="0px" y="0px"
	 viewBox="0 0 369 312" style="enable-background:new 0 0 369 312;" xml:space="preserve">
<style type="text/css">
	.st0{fill:#2E2EFF;}
</style>
<g id="Lager_1_1_">
</g>
<g id="Lager_2_1_">
	<g>
		<path id="bottom_1_" class="st0" d="M347.7,238.4c-2,1.9-4.3,3.2-7,4c4.3,5.2,7.1,12.9,7.1,21.5c0,15.6-9.1,28.3-20.4,28.3H41.8
			c-11.3,0-20.4-12.7-20.4-28.3c0-8.6,2.8-16.3,7.2-21.5c-2.6-0.8-5-2.2-7-4.1c-5.2,6.5-8.4,15.5-8.4,25.6
			c0,20.1,12.5,35.9,28.6,35.9h285.6c16,0,28.6-15.8,28.6-35.9C356.1,253.9,352.9,244.9,347.7,238.4z"/>
		<g id="cheese_1_">
			<path class="st0" d="M335.6,216.7L335.6,216.7c5.2,0,9.4,4.2,9.4,9.4s-4.2,9.4-9.4,9.4h-74l-16.7,16.7c-2,2-5.4,2-7.5,0l0,0
				l-16.7-16.7H33.2l0,0c-5.2,0-9.4-4.2-9.4-9.4c0-5.2,4.2-9.4,9.4-9.4l0,0l0,0L335.6,216.7 M335.6,209.2H33.2c-0.3,0-0.6,0-0.9,0.1
				c-9.4,0.7-16.4,8.8-15.7,18.2c0.6,8.4,7.3,15.1,15.7,15.7c0.3,0,0.6,0.1,0.9,0.1h184.3l14.5,14.5c5,5,13.2,5,18.1,0l14.5-14.5
				h71.3c9.4,0,17-7.6,17-17s-7.6-17-17-17L335.6,209.2L335.6,209.2z"/>
		</g>
		<g id="beef_1_">
			<path class="st0" d="M34.6,164.7c-2.7-1.4-5-3.2-6.5-5.4c-1.6,5.9-2.4,12.5-2.4,19.7c0,11.9,2.4,22.4,6.4,30.3c0.1,0,0.2,0,0.2,0
				c0.3,0,0.6-0.1,0.9-0.1h7.6c-4.6-6.9-7.6-17.8-7.6-30.2C33.2,174,33.7,169.1,34.6,164.7z"/>
			<path class="st0" d="M340.3,157.9c-0.8,1.2-1.9,2.3-3.1,3.3c-1.1,0.8-2.1,1.5-3.3,2.1c1.1,4.8,1.7,10.1,1.7,15.6
				c0,12.4-2.9,23.4-7.6,30.2h7.6h0.5c0.2,0,0.5,0,0.8,0c4-7.9,6.4-18.4,6.4-30.2C343.1,171.2,342.1,164.1,340.3,157.9z"/>
		</g>
		<g id="dressing_3_">
			<g id="dressing_4_">
				<g>
					<path class="st0" d="M340.9,149.2h-1.7h-3.9c0,0.1,0,0.2,0,0.2c0,10.2-19.3,10.5-19.3,10.5h-3.4c-3.6,3.6-8,4.7-12.3,4.7
						c-8.2,0-16.1-4.2-16.9-4.7h-19c-5.1,5.1-9.3,6.9-12.6,6.9c-6.3,0-9.2-6.2-9.5-6.9h-38.7c-2.3,2.3-5.3,3.5-8.5,3.5
						c-5.1,0-9.8-2.9-10.7-3.5h-54.8c-5.1,11-10.9,14.6-16.3,14.6c-10.4,0-19.5-13.2-20.3-14.6H72.6c-5.1,5.1-8.7,6.7-11.1,6.7
						c-4.3,0-5.2-5.3-5.4-6.7h-4.2c0,0-1.1,0.1-2.6,0.1c-5.1,0-15.9-1-15.9-9.6c0-0.5,0.1-0.9,0.1-1.3h-3.3c-1.5,0-2.9-0.2-4.2-0.4
						c-0.1,0.5-0.1,1.1-0.1,1.7c0,6.8,3.9,12.3,10.8,15c4.1,1.4,8.4,2.2,12.7,2.1c0.5,0,1.1,0,1.4,0c2.3,4.2,6.2,6.7,10.8,6.7
						c4.4,0,8.9-2.2,14.1-6.7h13.6c4.3,5.4,13.2,14.6,24.2,14.6c4.8,0,9.4-1.7,13.1-4.9c3.2-2.7,5.8-6,7.9-9.7h48.2
						c3.9,2.1,8.3,3.3,12.8,3.5c4,0,7.9-1.2,11.2-3.5h32c3,3.7,7.6,6.9,13.7,6.9c5.1,0,10.4-2.3,15.6-6.9h14.2
						c3.5,1.7,10.8,4.7,18.7,4.7c5.4,0.1,10.7-1.6,15.1-4.7h0.8c3.9-0.2,7.8-0.7,11.6-1.7c3.4-0.9,6.6-2.4,9.4-4.5
						c3.6-2.9,5.8-7.2,5.8-11.8c0-0.1,0-0.2,0-0.3C342.3,149.1,341.6,149.2,340.9,149.2z"/>
				</g>
			</g>
		</g>
		<g id="seeds_1_">
			<path class="st0" d="M68.1,101.6c-0.6,0-1.3-0.2-1.7-0.7c-1.3-1.3-0.7-3.6,1.4-5.7c1.1-1.1,2.4-1.9,4-2c0.7,0,1.3,0.2,1.7,0.7
				c0.4,0.4,1.1,1.4,0.4,3.1c-0.4,1-1,1.9-1.7,2.6C71,100.7,69.6,101.5,68.1,101.6z"/>
			<path class="st0" d="M71.7,94.7c0.2,0,0.5,0.1,0.7,0.2c0.6,0.6,0,2.2-1.4,3.6c-0.8,0.8-1.8,1.4-2.9,1.6c-0.2,0-0.5-0.1-0.7-0.2
				c-0.6-0.6,0-2.2,1.4-3.6C69.5,95.4,70.6,94.9,71.7,94.7 M71.7,91.7c-2,0.2-3.8,1.1-5.1,2.5c-0.9,0.9-1.7,2-2.1,3.1
				c-0.8,1.6-0.5,3.5,0.8,4.7c0.8,0.8,1.7,1.1,2.8,1.1c2-0.2,3.8-1.1,5.1-2.5c2.7-2.7,3.2-6,1.4-7.9C73.8,92.1,72.8,91.7,71.7,91.7
				L71.7,91.7z"/>
			<path class="st0" d="M113.7,73.1c-2.1,0-3.9-2.1-3.9-4.8c0-2.7,1.7-4.8,3.9-4.8s3.9,2.1,3.9,4.8C117.5,71,115.9,73.1,113.7,73.1z
				"/>
			<path class="st0" d="M113.7,64.9c1.3,0,2.3,1.5,2.3,3.3s-1.1,3.3-2.3,3.3c-1.3,0-2.3-1.5-2.3-3.3
				C111.3,66.4,112.5,64.9,113.7,64.9 M113.7,61.9c-3,0-5.4,2.8-5.4,6.3s2.3,6.3,5.4,6.3c3,0,5.4-2.8,5.4-6.3S116.7,61.9,113.7,61.9
				z"/>
			<path class="st0" d="M166.6,105.6h-0.3c-1.1-0.2-2-1.1-2.3-2.3c-0.3-1.1-0.4-2.2-0.2-3.2c0.3-2.3,1.5-4.8,3.5-4.8h0.3
				c1.9,0.2,2.9,2.5,2.6,5.5C169.8,103.2,168.6,105.6,166.6,105.6z"/>
			<path class="st0" d="M167.3,96.8L167.3,96.8c1,0.1,1.5,1.8,1.3,3.9c-0.2,2-1.1,3.5-2,3.5h-0.1c-0.9-0.1-1.5-1.8-1.2-3.9
				C165.6,98.2,166.4,96.8,167.3,96.8 M167.3,93.8L167.3,93.8c-2.6,0-4.5,2.5-5,6.1c-0.2,1.3-0.1,2.6,0.3,3.9
				c0.8,2.6,2.8,3.2,3.6,3.2c0.2,0,0.3,0,0.5,0c2.6,0,4.5-2.4,5-6.1c0.2-1.3,0.1-2.6-0.3-3.9c-0.8-2.7-2.8-3.2-3.6-3.3
				C167.6,93.8,167.5,93.8,167.3,93.8L167.3,93.8z"/>
			<path class="st0" d="M228.9,72.1c-2.1,0-3.9-2.3-4.2-5.5c-0.2-1.4,0.1-2.6,0.5-3.9c0.5-1.3,1.5-2.1,2.8-2.3h0.2
				c2.1,0,3.9,2.3,4.2,5.5c0.2,1.4,0,2.6-0.5,3.9c-0.5,1.2-1.5,2.1-2.8,2.3H228.9z"/>
			<path class="st0" d="M228.3,61.8c1.3,0,2.5,1.8,2.7,4.2c0.2,2.3-0.7,4.5-2,4.6h-0.2c-1.3,0-2.5-1.8-2.7-4.2s0.7-4.5,2-4.6H228.3
				 M228.3,58.8c-0.2,0-0.3,0-0.4,0c-1.9,0.2-3.4,1.5-4.1,3.2c-0.6,1.4-0.8,3.1-0.7,4.6c0.4,4,2.8,6.9,5.7,6.9c0.2,0,0.3,0,0.4,0
				c1.9-0.2,3.4-1.5,4.1-3.2c0.6-1.4,0.8-3.1,0.7-4.6C233.6,61.6,231.3,58.8,228.3,58.8z"/>
			<path class="st0" d="M280.9,106.8c-1.6,0-2.9-1.6-3.5-4.1c-0.2-1-0.2-2,0-2.9c0.2-1.1,1-2,2-2.2c0.2,0,0.3-0.1,0.5-0.1
				c1.6,0,2.9,1.6,3.5,4.1c0.2,1,0.2,2,0,2.9c-0.2,1.1-1,2-2,2.2C281.2,106.8,281.1,106.8,280.9,106.8z"/>
			<path class="st0" d="M280,99.1c0.8,0,1.7,1.2,2,2.9s-0.1,3.2-0.9,3.4h-0.2c-0.8,0-1.7-1.2-2-2.9s0.1-3.2,0.9-3.4H280 M280,96
				L280,96c-0.2,0-0.5,0-0.8,0.1c-2.6,0.5-3.9,3.5-3.2,7c0.6,3.2,2.6,5.3,4.9,5.3c0.2,0,0.5,0,0.8-0.1c1.7-0.4,2.9-1.7,3.2-3.3
				c0.3-1.2,0.3-2.4,0.1-3.6C284.3,98.2,282.4,96,280,96L280,96z"/>
			<path class="st0" d="M306.3,90.1c-0.2,0-0.5,0-0.7-0.1c-1.7-0.5-2.3-3-1.4-6c0.6-2,2-4.2,3.9-4.2c0.2,0,0.5,0,0.7,0.1
				c0.5,0.2,1.6,0.7,1.8,2.7c0.1,1.1-0.1,2.2-0.5,3.2C309.6,87.9,308.2,90.1,306.3,90.1z"/>
			<path class="st0" d="M308.1,81.3c0.1,0,0.2,0,0.2,0c0.8,0.3,1,2.1,0.4,4.1c-0.6,1.8-1.6,3.2-2.4,3.2c-0.1,0-0.2,0-0.2,0
				c-0.8-0.2-1-2.1-0.4-4.1C306.3,82.7,307.4,81.3,308.1,81.3 M308.1,78.3L308.1,78.3c-2.7,0-4.5,2.7-5.3,5.3
				c-0.4,1.2-0.6,2.6-0.5,3.9c0.2,2.9,2,3.8,2.9,4c0.4,0.1,0.8,0.2,1.1,0.2c2.7,0,4.5-2.7,5.3-5.3c0.4-1.2,0.6-2.6,0.5-3.9
				c-0.2-2.9-2-3.8-2.9-4C308.9,78.3,308.5,78.3,308.1,78.3L308.1,78.3z"/>
		</g>
		<path id="top_1_" class="st0" d="M181.2,19.9h2.4l1.9,0.1c31.4,1.1,63.8,7,93,18.9c19.7,8,38.9,19.3,52.8,36.2
			c11.4,13.9,22.3,37.2,19.7,56.8c0,9.1-3.8,9.7-10.1,9.7c-1,0-2.1,0-3.2,0h-11.3H29.8l0,0c-12.3,0-12.8-10.7-11.6-21.4
			c5.3-47.8,45.9-74.9,87.2-87.8C129.5,24.8,155.8,19.8,181.2,19.9 M181.2,12.3L181.2,12.3c-24.3,0-51.3,4.5-78.1,12.8
			c-24,7.5-44.7,18.7-59.9,32.4c-19,17-29.9,37.8-32.6,61.8c-0.9,8.2-1.1,17.6,4.6,24c3.5,3.9,8.4,5.8,14.5,5.8h296.7h12.8h1.7
			c4,0,8.3-0.2,11.9-2.9c4.9-3.7,5.6-9.5,5.7-13.8c1.2-10.1-0.5-21.8-5.1-33.7c-3.9-10.3-9.4-19.8-16.3-28.3
			c-12.9-15.7-31.7-28.6-55.8-38.4c-28.6-11.6-61.7-18.4-95.7-19.4h0c-0.7,0-1.3,0-2-0.1C182.9,12.4,182.1,12.4,181.2,12.3
			L181.2,12.3z"/>
	</g>
</g>
</svg>
